#VRML V2.0 utf8
Shape {
  appearance Appearance {
    material Material { diffuseColor 0.5 0.5 0.5 }
  }
  geometry IndexedFaceSet {
    coord Coordinate {
      point [
        -0.5061 0.3474 0.0453,
        -0.5061 0.3210 0.0453,
        -0.5390 0.3356 0.0453,
        -0.5390 0.3329 0.0453,
        -0.5417 0.3349 0.0453,
        -0.5417 0.3336 0.0453,
        -0.5445 0.3344 0.0453,
        -0.5445 0.3341 0.0453,
        -0.5464 0.5296 0.0453,
        -0.5455 0.5374 0.0453,
        -0.4873 0.5126 0.0453,
        -0.4794 0.5112 0.0453,
        -0.4749 0.5035 0.0453,
        -0.4881 0.5112 0.0453,
        -0.6907 0.5035 0.0453,
        -0.5334 0.5656 0.0453,
        -0.5407 0.5610 0.0453,
        -0.5541 0.6062 0.0453,
        -0.5452 0.5200 0.0453,
        -0.5414 0.5112 0.0453,
        -0.5519 0.5112 0.0453,
        -0.4749 0.5375 0.0453,
        -0.4754 0.5765 0.0453,
        -0.4754 0.6168 0.0453,
        -0.4958 0.5666 0.0453,
        -0.4840 0.5765 0.0453,
        -0.4883 0.5624 0.0453,
        -0.4821 0.5565 0.0453,
        -0.5434 0.5433 0.0453,
        -0.5398 0.5487 0.0453,
        -0.5345 0.5535 0.0453,
        -0.5139 0.5592 0.0453,
        -0.5054 0.5584 0.0453,
        -0.4986 0.5563 0.0453,
        -0.4839 0.5387 0.0453,
        -0.4830 0.5314 0.0453,
        -0.4860 0.5445 0.0453,
        -0.4892 0.5493 0.0453,
        -0.4931 0.5530 0.0453,
        -0.4842 0.5209 0.0453,
        -0.4840 0.6062 0.0453,
        -0.5476 0.5539 0.0453,
        -0.5519 0.5464 0.0453,
        -0.5544 0.5376 0.0453,
        -0.4754 0.5425 0.0453,
        -0.4780 0.5502 0.0453,
        -0.5284 0.5567 0.0453,
        -0.5200 0.5588 0.0453,
        -0.5041 0.5690 0.0453,
        -0.5132 0.5698 0.0453,
        -0.5244 0.5686 0.0453,
        -0.5551 0.5297 0.0453,
        -0.5544 0.5203 0.0453,
        -0.4760 0.5196 0.0453,
        -0.4749 0.5275 0.0453,
        -0.3329 0.5035 0.0453,
        -0.4744 0.5307 0.0453,
        -0.4744 0.5328 0.0453,
        -0.5541 0.6168 0.0453,
        -0.6907 0.9663 0.0453,
        -0.4749 0.9663 0.0453,
        -0.3329 0.9663 0.0453,
        -0.5529 0.4046 0.0453,
        -0.5496 0.3954 0.0453,
        -0.5541 0.3393 0.0453,
        -0.5541 0.4382 0.0453,
        -0.5541 0.4160 0.0453,
        -0.6907 -0.0215 0.0453,
        -0.5541 0.3287 0.0453,
        -0.4749 -0.0215 0.0453,
        -0.5439 0.3868 0.0453,
        -0.5438 0.3867 0.0453,
        -0.5377 0.3812 0.0453,
        -0.5309 0.3775 0.0453,
        -0.5231 0.3754 0.0453,
        -0.4754 0.3691 0.0453,
        -0.5157 0.3748 0.0453,
        -0.5455 0.4852 0.0453,
        -0.5195 0.4852 0.0453,
        -0.5455 0.4555 0.0453,
        -0.5195 0.4574 0.0453,
        -0.5052 0.3759 0.0453,
        -0.4969 0.3788 0.0453,
        -0.4899 0.3833 0.0453,
        -0.5109 0.4852 0.0453,
        -0.4840 0.4852 0.0453,
        -0.5109 0.4574 0.0453,
        -0.4840 0.4536 0.0453,
        -0.4754 0.4382 0.0453,
        -0.4837 0.3897 0.0453,
        -0.4789 0.3980 0.0453,
        -0.4762 0.4070 0.0453,
        -0.4754 0.4536 0.0453,
        -0.4754 0.4958 0.0453,
        -0.5541 0.4958 0.0453,
        -0.5541 0.4555 0.0453,
        -0.4754 0.4168 0.0453,
        -0.4754 0.2980 0.0453,
        -0.4754 0.3095 0.0453,
        -0.4974 0.3175 0.0453,
        -0.4974 0.3500 0.0453,
        -0.4754 0.3575 0.0453,
        -0.3329 -0.0215 0.0453,
        -0.5455 0.4276 0.0453,
        -0.4840 0.4276 0.0453,
        -0.5455 0.4160 0.0453,
        -0.4840 0.4165 0.0453,
        -0.4848 0.4081 0.0453,
        -0.5155 0.3854 0.0453,
        -0.5233 0.3861 0.0453,
        -0.5296 0.3879 0.0453,
        -0.5445 0.4067 0.0453,
        -0.4868 0.4015 0.0453,
        -0.4900 0.3962 0.0453,
        -0.4944 0.3917 0.0453,
        -0.4998 0.3884 0.0453,
        -0.5072 0.3861 0.0453,
        -0.5344 0.3906 0.0453,
        -0.5385 0.3945 0.0453,
        -0.5422 0.4002 0.0453,
        -0.2559 -0.0656 0.5177,
        -0.2559 -0.0984 0.3209,
        -0.2559 0.0000 0.3209,
        -0.2559 0.0000 0.4193,
        -0.2559 0.1969 0.4193,
        -0.2559 1.0105 0.5177,
        -0.2559 0.9449 0.3209,
        -0.2559 1.0433 0.3209,
        -0.2559 0.9449 0.4193,
        -0.2559 0.7480 0.4193,
        -0.2559 0.7480 0.3209,
        -0.2559 0.1969 0.3209,
        -0.2953 0.9706 0.5571,
        -0.7283 0.9706 0.5571,
        -0.2953 -0.0257 0.5571,
        -0.7283 -0.0257 0.5571,
        -0.7672 1.0094 0.5242,
        -0.2564 1.0094 0.5242,
        -0.7677 1.0105 0.5177,
        -0.7677 1.0433 0.3209,
        -0.7677 -0.0984 0.3209,
        -0.7677 -0.0656 0.5177,
        -0.7672 -0.0645 0.5242,
        -0.2564 -0.0645 0.5242,
        -0.7677 0.3740 0.4193,
        -0.7677 0.3740 0.3209,
        -0.7677 0.5709 0.3209,
        -0.7677 0.5709 0.4193,
        -0.7296 -0.0603 0.0785,
        -0.7296 1.0052 0.0785,
        -0.2940 1.0052 0.0785,
        -0.2940 -0.0603 0.0785,
        -0.3237 -0.0306 0.0464,
        -0.2950 -0.0594 0.0740,
        -0.2950 1.0042 0.0740,
        -0.2965 -0.0578 0.0696,
        -0.2965 1.0027 0.0696,
        -0.2985 -0.0558 0.0654,
        -0.2985 1.0007 0.0654,
        -0.3010 -0.0533 0.0615,
        -0.3010 0.9982 0.0615,
        -0.3073 -0.0470 0.0547,
        -0.3073 0.9919 0.0547,
        -0.3150 -0.0393 0.0496,
        -0.3150 0.9842 0.0496,
        -0.3237 0.9755 0.0464,
        -0.6999 -0.0306 0.0464,
        -0.7251 -0.0558 0.0654,
        -0.7226 -0.0533 0.0615,
        -0.7163 -0.0470 0.0547,
        -0.7086 -0.0393 0.0496,
        -0.7286 -0.0594 0.0740,
        -0.7271 -0.0578 0.0696,
        -0.7286 1.0042 0.0740,
        -0.7271 1.0027 0.0696,
        -0.7251 1.0007 0.0654,
        -0.7226 0.9982 0.0615,
        -0.7163 0.9919 0.0547,
        -0.7086 0.9842 0.0496,
        -0.6999 0.9755 0.0464,
        -0.0375 0.0000 0.1037,
        -0.0375 0.1969 0.1037,
        -0.0511 0.0000 0.1074,
        -0.0511 0.1969 0.1074,
        -0.0633 0.0000 0.1143,
        -0.0633 0.1969 0.1143,
        -0.0735 0.0000 0.1241,
        -0.0735 0.1969 0.1241,
        -0.0809 0.0000 0.1361,
        -0.0809 0.1969 0.1361,
        -0.0852 0.0000 0.1495,
        -0.0852 0.1969 0.1495,
        -0.1173 0.0000 0.3256,
        -0.1173 0.1969 0.3256,
        -0.1250 0.1969 0.3508,
        -0.1250 0.0000 0.3508,
        -0.1383 0.1969 0.3736,
        -0.1383 0.0000 0.3736,
        -0.1565 0.1969 0.3928,
        -0.1565 0.0000 0.3928,
        -0.1786 0.1969 0.4072,
        -0.1786 0.0000 0.4072,
        -0.2034 0.1969 0.4162,
        -0.2034 0.0000 0.4162,
        -0.2296 0.1969 0.4193,
        -0.2296 0.0000 0.4193,
        -0.2402 0.0000 0.3209,
        -0.2402 0.1969 0.3209,
        -0.2337 0.0000 0.3201,
        -0.2337 0.1969 0.3201,
        -0.2275 0.0000 0.3179,
        -0.2275 0.1969 0.3179,
        -0.2220 0.0000 0.3143,
        -0.2220 0.1969 0.3143,
        -0.2175 0.0000 0.3095,
        -0.2175 0.1969 0.3095,
        -0.2142 0.0000 0.3038,
        -0.2142 0.1969 0.3038,
        -0.2122 0.0000 0.2976,
        -0.2122 0.1969 0.2976,
        -0.1878 0.0000 0.1637,
        -0.1878 0.1969 0.1637,
        -0.1784 0.1969 0.1296,
        -0.1784 0.0000 0.1296,
        -0.1630 0.1969 0.0977,
        -0.1630 0.0000 0.0977,
        -0.1423 0.1969 0.0690,
        -0.1423 0.0000 0.0690,
        -0.1167 0.1969 0.0445,
        -0.1167 0.0000 0.0445,
        -0.0873 0.1969 0.0249,
        -0.0873 0.0000 0.0249,
        -0.0548 0.1969 0.0109,
        -0.0548 0.0000 0.0109,
        -0.0203 0.1969 0.0029,
        -0.0203 0.0000 0.0029,
        0.0000 0.0000 0.0000,
        0.0000 0.1969 0.0000,
        0.0000 0.0000 0.0984,
        0.0000 0.1969 0.0984,
        -0.0375 0.7480 0.1037,
        -0.0375 0.9449 0.1037,
        -0.0511 0.7480 0.1074,
        -0.0511 0.9449 0.1074,
        -0.0633 0.7480 0.1143,
        -0.0633 0.9449 0.1143,
        -0.0735 0.7480 0.1241,
        -0.0735 0.9449 0.1241,
        -0.0809 0.7480 0.1361,
        -0.0809 0.9449 0.1361,
        -0.0852 0.7480 0.1495,
        -0.0852 0.9449 0.1495,
        -0.1173 0.7480 0.3256,
        -0.1173 0.9449 0.3256,
        -0.1250 0.9449 0.3508,
        -0.1250 0.7480 0.3508,
        -0.1383 0.9449 0.3736,
        -0.1383 0.7480 0.3736,
        -0.1565 0.9449 0.3928,
        -0.1565 0.7480 0.3928,
        -0.1786 0.9449 0.4072,
        -0.1786 0.7480 0.4072,
        -0.2034 0.9449 0.4162,
        -0.2034 0.7480 0.4162,
        -0.2296 0.9449 0.4193,
        -0.2296 0.7480 0.4193,
        -0.2402 0.7480 0.3209,
        -0.2402 0.9449 0.3209,
        -0.2337 0.7480 0.3201,
        -0.2337 0.9449 0.3201,
        -0.2275 0.7480 0.3179,
        -0.2275 0.9449 0.3179,
        -0.2220 0.7480 0.3143,
        -0.2220 0.9449 0.3143,
        -0.2175 0.7480 0.3095,
        -0.2175 0.9449 0.3095,
        -0.2142 0.7480 0.3038,
        -0.2142 0.9449 0.3038,
        -0.2122 0.7480 0.2976,
        -0.2122 0.9449 0.2976,
        -0.1878 0.7480 0.1637,
        -0.1878 0.9449 0.1637,
        -0.1784 0.9449 0.1296,
        -0.1784 0.7480 0.1296,
        -0.1630 0.9449 0.0977,
        -0.1630 0.7480 0.0977,
        -0.1423 0.9449 0.0690,
        -0.1423 0.7480 0.0690,
        -0.1167 0.9449 0.0445,
        -0.1167 0.7480 0.0445,
        -0.0873 0.9449 0.0249,
        -0.0873 0.7480 0.0249,
        -0.0548 0.9449 0.0109,
        -0.0548 0.7480 0.0109,
        -0.0203 0.9449 0.0029,
        -0.0203 0.7480 0.0029,
        0.0000 0.7480 0.0000,
        0.0000 0.9449 0.0000,
        0.0000 0.7480 0.0984,
        0.0000 0.9449 0.0984,
        -0.8114 0.3740 0.2976,
        -0.8114 0.5709 0.2976,
        -0.8095 0.3740 0.3038,
        -0.8095 0.5709 0.3038,
        -0.8062 0.3740 0.3095,
        -0.8062 0.5709 0.3095,
        -0.8016 0.3740 0.3143,
        -0.8016 0.5709 0.3143,
        -0.7961 0.3740 0.3179,
        -0.7961 0.5709 0.3179,
        -0.7900 0.3740 0.3201,
        -0.7900 0.5709 0.3201,
        -0.7834 0.3740 0.3209,
        -0.7834 0.5709 0.3209,
        -0.7940 0.3740 0.4193,
        -0.7940 0.5709 0.4193,
        -0.8202 0.5709 0.4162,
        -0.8202 0.3740 0.4162,
        -0.8450 0.5709 0.4072,
        -0.8450 0.3740 0.4072,
        -0.8671 0.5709 0.3928,
        -0.8671 0.3740 0.3928,
        -0.8853 0.5709 0.3736,
        -0.8853 0.3740 0.3736,
        -0.8986 0.5709 0.3508,
        -0.8986 0.3740 0.3508,
        -0.9063 0.5709 0.3256,
        -0.9063 0.3740 0.3256,
        -0.9384 0.3740 0.1495,
        -0.9384 0.5709 0.1495,
        -0.9427 0.3740 0.1361,
        -0.9427 0.5709 0.1361,
        -0.9501 0.3740 0.1241,
        -0.9501 0.5709 0.1241,
        -0.9603 0.3740 0.1143,
        -0.9603 0.5709 0.1143,
        -0.9726 0.3740 0.1074,
        -0.9726 0.5709 0.1074,
        -0.9862 0.3740 0.1037,
        -0.9862 0.5709 0.1037,
        -1.0236 0.3740 0.0984,
        -1.0236 0.5709 0.0984,
        -1.0236 0.3740 -0.0000,
        -1.0236 0.5709 -0.0000,
        -1.0033 0.3740 0.0029,
        -1.0033 0.5709 0.0029,
        -0.9688 0.5709 0.0109,
        -0.9688 0.3740 0.0109,
        -0.9363 0.5709 0.0249,
        -0.9363 0.3740 0.0249,
        -0.9069 0.5709 0.0445,
        -0.9069 0.3740 0.0445,
        -0.8813 0.5709 0.0690,
        -0.8813 0.3740 0.0690,
        -0.8606 0.5709 0.0977,
        -0.8606 0.3740 0.0977,
        -0.8452 0.5709 0.1296,
        -0.8452 0.3740 0.1296,
        -0.8358 0.5709 0.1637,
        -0.8358 0.3740 0.1637,
        -0.7664 -0.0637 0.5279,
        -0.7664 1.0086 0.5279,
        -0.7646 1.0069 0.5330,
        -0.7646 -0.0620 0.5330,
        -0.7624 1.0047 0.5374,
        -0.7624 -0.0598 0.5374,
        -0.7601 -0.0574 0.5410,
        -0.7536 -0.0510 0.5475,
        -0.7480 -0.0454 0.5518,
        -0.7479 0.9902 0.5516,
        -0.7562 -0.0535 0.5456,
        -0.7538 0.9960 0.5478,
        -0.7560 0.9982 0.5454,
        -0.7601 1.0023 0.5410,
        -0.7460 -0.0434 0.5526,
        -0.7385 -0.0359 0.5557,
        -0.7385 0.9807 0.5556,
        -0.7461 0.9884 0.5528,
        -0.7375 -0.0348 0.5559,
        -0.7375 0.9797 0.5560,
        -0.2572 1.0086 0.5279,
        -0.2590 1.0069 0.5330,
        -0.2612 1.0047 0.5374,
        -0.2635 1.0023 0.5410,
        -0.2676 0.9982 0.5454,
        -0.2698 0.9960 0.5478,
        -0.2757 0.9902 0.5516,
        -0.2775 0.9884 0.5528,
        -0.2851 0.9807 0.5556,
        -0.2861 0.9797 0.5560,
        -0.2862 -0.0348 0.5559,
        -0.2776 -0.0434 0.5526,
        -0.2851 -0.0359 0.5557,
        -0.2756 -0.0454 0.5518,
        -0.2700 -0.0510 0.5475,
        -0.2674 -0.0535 0.5456,
        -0.2635 -0.0574 0.5410,
        -0.2612 -0.0598 0.5374,
        -0.2572 -0.0637 0.5279,
        -0.2590 -0.0620 0.5330,
      ]
    }
    coordIndex [
      0, 1, 2, -1,
      2, 1, 3, -1,
      2, 3, 4, -1,
      4, 3, 5, -1,
      4, 5, 6, -1,
      6, 5, 7, -1,
      8, 9, 10, -1,
      11, 12, 13, -1,
      13, 12, 14, -1,
      15, 16, 17, -1,
      8, 10, 18, -1,
      18, 10, 13, -1,
      18, 13, 19, -1,
      19, 13, 14, -1,
      19, 14, 20, -1,
      21, 22, 23, -1,
      24, 25, 26, -1,
      26, 25, 22, -1,
      26, 22, 27, -1,
      9, 28, 10, -1,
      10, 28, 29, -1,
      10, 29, 30, -1,
      31, 32, 10, -1,
      10, 32, 33, -1,
      34, 35, 36, -1,
      36, 35, 37, -1,
      33, 38, 10, -1,
      10, 38, 37, -1,
      10, 37, 39, -1,
      39, 37, 35, -1,
      17, 40, 25, -1,
      41, 42, 14, -1,
      14, 42, 43, -1,
      21, 44, 22, -1,
      22, 44, 45, -1,
      22, 45, 27, -1,
      30, 46, 10, -1,
      10, 46, 47, -1,
      10, 47, 31, -1,
      24, 48, 25, -1,
      25, 48, 49, -1,
      25, 49, 17, -1,
      17, 49, 50, -1,
      17, 50, 15, -1,
      43, 51, 14, -1,
      14, 51, 52, -1,
      14, 52, 20, -1,
      11, 53, 12, -1,
      12, 53, 54, -1,
      12, 54, 55, -1,
      54, 56, 55, -1,
      55, 56, 57, -1,
      55, 57, 21, -1,
      16, 41, 17, -1,
      17, 41, 14, -1,
      17, 14, 58, -1,
      58, 14, 59, -1,
      58, 59, 23, -1,
      23, 59, 60, -1,
      23, 60, 21, -1,
      21, 60, 61, -1,
      21, 61, 55, -1,
      62, 63, 64, -1,
      14, 65, 66, -1,
      66, 62, 14, -1,
      14, 62, 64, -1,
      14, 64, 67, -1,
      67, 64, 68, -1,
      67, 68, 69, -1,
      63, 70, 64, -1,
      64, 70, 71, -1,
      64, 71, 72, -1,
      72, 73, 64, -1,
      64, 73, 74, -1,
      64, 74, 75, -1,
      75, 74, 76, -1,
      77, 78, 79, -1,
      79, 78, 80, -1,
      76, 81, 75, -1,
      75, 81, 82, -1,
      75, 82, 83, -1,
      84, 85, 86, -1,
      86, 85, 87, -1,
      86, 87, 88, -1,
      83, 89, 75, -1,
      75, 89, 90, -1,
      75, 90, 91, -1,
      92, 93, 12, -1,
      12, 93, 94, -1,
      12, 94, 14, -1,
      14, 94, 95, -1,
      14, 95, 65, -1,
      65, 95, 79, -1,
      65, 79, 88, -1,
      88, 79, 80, -1,
      88, 80, 86, -1,
      87, 92, 88, -1,
      88, 92, 12, -1,
      88, 12, 96, -1,
      97, 98, 12, -1,
      99, 100, 98, -1,
      98, 100, 101, -1,
      98, 101, 12, -1,
      12, 101, 75, -1,
      12, 75, 96, -1,
      96, 75, 91, -1,
      68, 97, 69, -1,
      69, 97, 12, -1,
      69, 12, 102, -1,
      102, 12, 55, -1,
      103, 104, 105, -1,
      105, 104, 106, -1,
      105, 106, 107, -1,
      108, 109, 105, -1,
      105, 109, 110, -1,
      105, 110, 111, -1,
      107, 112, 105, -1,
      105, 112, 113, -1,
      105, 113, 114, -1,
      114, 115, 105, -1,
      105, 115, 116, -1,
      105, 116, 108, -1,
      117, 118, 110, -1,
      110, 118, 119, -1,
      110, 119, 111, -1,
      0, 2, 64, -1,
      75, 101, 100, -1,
      2, 4, 64, -1,
      64, 4, 6, -1,
      64, 6, 68, -1,
      68, 6, 7, -1,
      68, 7, 5, -1,
      5, 3, 68, -1,
      68, 3, 1, -1,
      68, 1, 97, -1,
      98, 97, 99, -1,
      99, 97, 1, -1,
      99, 1, 100, -1,
      100, 1, 0, -1,
      100, 0, 75, -1,
      75, 0, 64, -1,
      73, 72, 117, -1,
      117, 72, 71, -1,
      117, 71, 118, -1,
      118, 71, 70, -1,
      118, 70, 119, -1,
      119, 70, 63, -1,
      119, 63, 111, -1,
      111, 63, 62, -1,
      111, 62, 105, -1,
      105, 62, 66, -1,
      105, 66, 103, -1,
      103, 66, 65, -1,
      103, 65, 104, -1,
      104, 65, 88, -1,
      104, 88, 106, -1,
      106, 88, 96, -1,
      106, 96, 107, -1,
      107, 96, 91, -1,
      107, 91, 112, -1,
      112, 91, 90, -1,
      112, 90, 113, -1,
      113, 90, 89, -1,
      113, 89, 114, -1,
      114, 89, 83, -1,
      114, 83, 115, -1,
      115, 83, 82, -1,
      115, 82, 116, -1,
      116, 82, 81, -1,
      116, 81, 108, -1,
      108, 81, 76, -1,
      108, 76, 109, -1,
      109, 76, 74, -1,
      109, 74, 110, -1,
      110, 74, 73, -1,
      110, 73, 117, -1,
      93, 92, 87, -1,
      87, 85, 93, -1,
      93, 85, 84, -1,
      93, 84, 94, -1,
      79, 95, 77, -1,
      77, 95, 94, -1,
      77, 94, 78, -1,
      78, 94, 84, -1,
      78, 84, 80, -1,
      80, 84, 86, -1,
      11, 13, 10, -1,
      11, 10, 53, -1,
      53, 10, 39, -1,
      53, 39, 54, -1,
      54, 39, 35, -1,
      54, 35, 56, -1,
      56, 35, 57, -1,
      57, 35, 34, -1,
      57, 34, 21, -1,
      19, 20, 18, -1,
      18, 20, 52, -1,
      18, 52, 8, -1,
      8, 52, 51, -1,
      8, 51, 9, -1,
      9, 51, 43, -1,
      9, 43, 28, -1,
      28, 43, 42, -1,
      28, 42, 29, -1,
      29, 42, 41, -1,
      29, 41, 30, -1,
      30, 41, 16, -1,
      30, 16, 46, -1,
      46, 16, 15, -1,
      46, 15, 47, -1,
      47, 15, 50, -1,
      47, 50, 31, -1,
      31, 50, 49, -1,
      31, 49, 32, -1,
      32, 49, 48, -1,
      32, 48, 33, -1,
      33, 48, 24, -1,
      33, 24, 38, -1,
      38, 24, 26, -1,
      38, 26, 37, -1,
      37, 26, 27, -1,
      37, 27, 36, -1,
      36, 27, 45, -1,
      36, 45, 34, -1,
      34, 45, 44, -1,
      34, 44, 21, -1,
      120, 121, 122, -1,
      122, 123, 120, -1,
      120, 123, 124, -1,
      120, 124, 125, -1,
      126, 127, 128, -1,
      128, 127, 125, -1,
      128, 125, 129, -1,
      129, 125, 124, -1,
      129, 124, 130, -1,
      130, 124, 131, -1,
      132, 133, 134, -1,
      134, 133, 135, -1,
      136, 137, 138, -1,
      138, 137, 125, -1,
      138, 125, 139, -1,
      139, 125, 127, -1,
      140, 121, 141, -1,
      141, 121, 120, -1,
      141, 120, 142, -1,
      142, 120, 143, -1,
      144, 145, 140, -1,
      138, 139, 146, -1,
      146, 147, 138, -1,
      138, 147, 144, -1,
      138, 144, 141, -1,
      141, 144, 140, -1,
      17, 58, 40, -1,
      40, 58, 23, -1,
      40, 23, 25, -1,
      25, 23, 22, -1,
      148, 140, 145, -1,
      148, 145, 149, -1,
      149, 145, 146, -1,
      149, 146, 139, -1,
      149, 139, 150, -1,
      150, 139, 127, -1,
      151, 121, 148, -1,
      148, 121, 140, -1,
      122, 121, 151, -1,
      127, 126, 150, -1,
      150, 126, 130, -1,
      150, 130, 151, -1,
      151, 130, 131, -1,
      151, 131, 122, -1,
      152, 102, 55, -1,
      150, 151, 153, -1,
      150, 153, 154, -1,
      154, 153, 155, -1,
      154, 155, 156, -1,
      156, 155, 157, -1,
      156, 157, 158, -1,
      158, 157, 159, -1,
      158, 159, 160, -1,
      160, 159, 161, -1,
      160, 161, 162, -1,
      162, 161, 163, -1,
      162, 163, 164, -1,
      164, 163, 152, -1,
      164, 152, 165, -1,
      165, 152, 55, -1,
      165, 55, 61, -1,
      166, 67, 69, -1,
      155, 167, 157, -1,
      157, 167, 168, -1,
      157, 168, 159, -1,
      159, 168, 169, -1,
      159, 169, 161, -1,
      161, 169, 170, -1,
      161, 170, 163, -1,
      163, 170, 166, -1,
      163, 166, 152, -1,
      152, 166, 69, -1,
      152, 69, 102, -1,
      151, 148, 153, -1,
      153, 148, 171, -1,
      153, 171, 155, -1,
      155, 171, 172, -1,
      155, 172, 167, -1,
      149, 150, 154, -1,
      165, 61, 60, -1,
      149, 154, 173, -1,
      173, 154, 156, -1,
      173, 156, 174, -1,
      174, 156, 158, -1,
      174, 158, 175, -1,
      175, 158, 160, -1,
      175, 160, 176, -1,
      176, 160, 162, -1,
      176, 162, 177, -1,
      177, 162, 164, -1,
      177, 164, 178, -1,
      178, 164, 165, -1,
      178, 165, 179, -1,
      179, 165, 60, -1,
      179, 60, 59, -1,
      179, 59, 14, -1,
      172, 175, 167, -1,
      167, 175, 176, -1,
      167, 176, 168, -1,
      168, 176, 177, -1,
      168, 177, 169, -1,
      169, 177, 178, -1,
      169, 178, 170, -1,
      170, 178, 179, -1,
      170, 179, 166, -1,
      166, 179, 14, -1,
      166, 14, 67, -1,
      148, 149, 171, -1,
      171, 149, 173, -1,
      171, 173, 172, -1,
      172, 173, 174, -1,
      172, 174, 175, -1,
      180, 181, 182, -1,
      182, 181, 183, -1,
      182, 183, 184, -1,
      184, 183, 185, -1,
      184, 185, 186, -1,
      186, 185, 187, -1,
      186, 187, 188, -1,
      188, 187, 189, -1,
      188, 189, 190, -1,
      190, 189, 191, -1,
      192, 190, 193, -1,
      193, 190, 191, -1,
      192, 193, 194, -1,
      192, 194, 195, -1,
      195, 194, 196, -1,
      195, 196, 197, -1,
      197, 196, 198, -1,
      197, 198, 199, -1,
      199, 198, 200, -1,
      199, 200, 201, -1,
      201, 200, 202, -1,
      201, 202, 203, -1,
      203, 202, 204, -1,
      203, 204, 205, -1,
      123, 205, 124, -1,
      124, 205, 204, -1,
      206, 122, 207, -1,
      207, 122, 131, -1,
      206, 207, 208, -1,
      208, 207, 209, -1,
      208, 209, 210, -1,
      210, 209, 211, -1,
      210, 211, 212, -1,
      212, 211, 213, -1,
      212, 213, 214, -1,
      214, 213, 215, -1,
      214, 215, 216, -1,
      216, 215, 217, -1,
      216, 217, 218, -1,
      218, 217, 219, -1,
      220, 218, 221, -1,
      221, 218, 219, -1,
      220, 221, 222, -1,
      220, 222, 223, -1,
      223, 222, 224, -1,
      223, 224, 225, -1,
      225, 224, 226, -1,
      225, 226, 227, -1,
      227, 226, 228, -1,
      227, 228, 229, -1,
      229, 228, 230, -1,
      229, 230, 231, -1,
      231, 230, 232, -1,
      231, 232, 233, -1,
      233, 232, 234, -1,
      233, 234, 235, -1,
      236, 235, 237, -1,
      237, 235, 234, -1,
      238, 236, 239, -1,
      239, 236, 237, -1,
      180, 238, 181, -1,
      181, 238, 239, -1,
      236, 238, 235, -1,
      235, 238, 180, -1,
      123, 122, 205, -1,
      205, 122, 206, -1,
      205, 206, 203, -1,
      203, 206, 208, -1,
      203, 208, 201, -1,
      201, 208, 210, -1,
      201, 210, 199, -1,
      199, 210, 212, -1,
      199, 212, 197, -1,
      197, 212, 214, -1,
      197, 214, 195, -1,
      195, 214, 216, -1,
      195, 216, 192, -1,
      216, 218, 192, -1,
      192, 218, 220, -1,
      192, 220, 190, -1,
      190, 220, 223, -1,
      190, 223, 188, -1,
      188, 223, 225, -1,
      188, 225, 186, -1,
      186, 225, 227, -1,
      186, 227, 184, -1,
      184, 227, 229, -1,
      184, 229, 182, -1,
      182, 229, 231, -1,
      182, 231, 180, -1,
      180, 231, 233, -1,
      180, 233, 235, -1,
      191, 189, 224, -1,
      224, 189, 226, -1,
      226, 189, 187, -1,
      226, 187, 228, -1,
      228, 187, 185, -1,
      228, 185, 230, -1,
      230, 185, 183, -1,
      230, 183, 232, -1,
      232, 183, 181, -1,
      232, 181, 234, -1,
      234, 181, 239, -1,
      234, 239, 237, -1,
      131, 124, 207, -1,
      207, 124, 204, -1,
      207, 204, 209, -1,
      209, 204, 202, -1,
      209, 202, 211, -1,
      211, 202, 200, -1,
      211, 200, 213, -1,
      213, 200, 198, -1,
      213, 198, 215, -1,
      215, 198, 196, -1,
      215, 196, 217, -1,
      217, 196, 194, -1,
      217, 194, 219, -1,
      219, 194, 193, -1,
      219, 193, 221, -1,
      221, 193, 191, -1,
      221, 191, 222, -1,
      222, 191, 224, -1,
      240, 241, 242, -1,
      242, 241, 243, -1,
      242, 243, 244, -1,
      244, 243, 245, -1,
      244, 245, 246, -1,
      246, 245, 247, -1,
      246, 247, 248, -1,
      248, 247, 249, -1,
      248, 249, 250, -1,
      250, 249, 251, -1,
      252, 250, 253, -1,
      253, 250, 251, -1,
      252, 253, 254, -1,
      252, 254, 255, -1,
      255, 254, 256, -1,
      255, 256, 257, -1,
      257, 256, 258, -1,
      257, 258, 259, -1,
      259, 258, 260, -1,
      259, 260, 261, -1,
      261, 260, 262, -1,
      261, 262, 263, -1,
      263, 262, 264, -1,
      263, 264, 265, -1,
      129, 265, 128, -1,
      128, 265, 264, -1,
      266, 130, 267, -1,
      267, 130, 126, -1,
      266, 267, 268, -1,
      268, 267, 269, -1,
      268, 269, 270, -1,
      270, 269, 271, -1,
      270, 271, 272, -1,
      272, 271, 273, -1,
      272, 273, 274, -1,
      274, 273, 275, -1,
      274, 275, 276, -1,
      276, 275, 277, -1,
      276, 277, 278, -1,
      278, 277, 279, -1,
      280, 278, 281, -1,
      281, 278, 279, -1,
      280, 281, 282, -1,
      280, 282, 283, -1,
      283, 282, 284, -1,
      283, 284, 285, -1,
      285, 284, 286, -1,
      285, 286, 287, -1,
      287, 286, 288, -1,
      287, 288, 289, -1,
      289, 288, 290, -1,
      289, 290, 291, -1,
      291, 290, 292, -1,
      291, 292, 293, -1,
      293, 292, 294, -1,
      293, 294, 295, -1,
      296, 295, 297, -1,
      297, 295, 294, -1,
      298, 296, 299, -1,
      299, 296, 297, -1,
      240, 298, 241, -1,
      241, 298, 299, -1,
      296, 298, 295, -1,
      295, 298, 240, -1,
      129, 130, 265, -1,
      265, 130, 266, -1,
      265, 266, 263, -1,
      263, 266, 268, -1,
      263, 268, 261, -1,
      261, 268, 270, -1,
      261, 270, 259, -1,
      259, 270, 272, -1,
      259, 272, 257, -1,
      257, 272, 274, -1,
      257, 274, 255, -1,
      255, 274, 276, -1,
      255, 276, 252, -1,
      276, 278, 252, -1,
      252, 278, 280, -1,
      252, 280, 250, -1,
      250, 280, 283, -1,
      250, 283, 248, -1,
      248, 283, 285, -1,
      248, 285, 246, -1,
      246, 285, 287, -1,
      246, 287, 244, -1,
      244, 287, 289, -1,
      244, 289, 242, -1,
      242, 289, 291, -1,
      242, 291, 240, -1,
      240, 291, 293, -1,
      240, 293, 295, -1,
      251, 249, 284, -1,
      284, 249, 286, -1,
      286, 249, 247, -1,
      286, 247, 288, -1,
      288, 247, 245, -1,
      288, 245, 290, -1,
      290, 245, 243, -1,
      290, 243, 292, -1,
      292, 243, 241, -1,
      292, 241, 294, -1,
      294, 241, 299, -1,
      294, 299, 297, -1,
      126, 128, 267, -1,
      267, 128, 264, -1,
      267, 264, 269, -1,
      269, 264, 262, -1,
      269, 262, 271, -1,
      271, 262, 260, -1,
      271, 260, 273, -1,
      273, 260, 258, -1,
      273, 258, 275, -1,
      275, 258, 256, -1,
      275, 256, 277, -1,
      277, 256, 254, -1,
      277, 254, 279, -1,
      279, 254, 253, -1,
      279, 253, 281, -1,
      281, 253, 251, -1,
      281, 251, 282, -1,
      282, 251, 284, -1,
      300, 301, 302, -1,
      302, 301, 303, -1,
      302, 303, 304, -1,
      304, 303, 305, -1,
      304, 305, 306, -1,
      306, 305, 307, -1,
      306, 307, 308, -1,
      308, 307, 309, -1,
      308, 309, 310, -1,
      310, 309, 311, -1,
      310, 311, 312, -1,
      312, 311, 313, -1,
      145, 312, 146, -1,
      146, 312, 313, -1,
      314, 144, 315, -1,
      315, 144, 147, -1,
      314, 315, 316, -1,
      314, 316, 317, -1,
      317, 316, 318, -1,
      317, 318, 319, -1,
      319, 318, 320, -1,
      319, 320, 321, -1,
      321, 320, 322, -1,
      321, 322, 323, -1,
      323, 322, 324, -1,
      323, 324, 325, -1,
      325, 324, 326, -1,
      325, 326, 327, -1,
      328, 327, 329, -1,
      329, 327, 326, -1,
      328, 329, 330, -1,
      330, 329, 331, -1,
      330, 331, 332, -1,
      332, 331, 333, -1,
      332, 333, 334, -1,
      334, 333, 335, -1,
      334, 335, 336, -1,
      336, 335, 337, -1,
      336, 337, 338, -1,
      338, 337, 339, -1,
      340, 338, 341, -1,
      341, 338, 339, -1,
      342, 340, 343, -1,
      343, 340, 341, -1,
      344, 342, 345, -1,
      345, 342, 343, -1,
      344, 345, 346, -1,
      344, 346, 347, -1,
      347, 346, 348, -1,
      347, 348, 349, -1,
      349, 348, 350, -1,
      349, 350, 351, -1,
      351, 350, 352, -1,
      351, 352, 353, -1,
      353, 352, 354, -1,
      353, 354, 355, -1,
      355, 354, 356, -1,
      355, 356, 357, -1,
      357, 356, 358, -1,
      357, 358, 359, -1,
      300, 359, 301, -1,
      301, 359, 358, -1,
      328, 330, 355, -1,
      355, 330, 353, -1,
      353, 330, 332, -1,
      353, 332, 351, -1,
      351, 332, 334, -1,
      351, 334, 349, -1,
      349, 334, 336, -1,
      349, 336, 347, -1,
      347, 336, 338, -1,
      347, 338, 344, -1,
      344, 338, 340, -1,
      344, 340, 342, -1,
      145, 144, 312, -1,
      312, 144, 314, -1,
      312, 314, 310, -1,
      310, 314, 317, -1,
      310, 317, 308, -1,
      308, 317, 319, -1,
      308, 319, 306, -1,
      306, 319, 321, -1,
      306, 321, 304, -1,
      304, 321, 323, -1,
      304, 323, 302, -1,
      302, 323, 325, -1,
      302, 325, 300, -1,
      300, 325, 327, -1,
      300, 327, 359, -1,
      359, 327, 328, -1,
      359, 328, 357, -1,
      357, 328, 355, -1,
      343, 341, 345, -1,
      345, 341, 339, -1,
      147, 146, 315, -1,
      315, 146, 313, -1,
      315, 313, 316, -1,
      316, 313, 311, -1,
      316, 311, 318, -1,
      318, 311, 309, -1,
      318, 309, 320, -1,
      320, 309, 307, -1,
      320, 307, 322, -1,
      322, 307, 305, -1,
      322, 305, 324, -1,
      324, 305, 303, -1,
      324, 303, 326, -1,
      303, 301, 326, -1,
      326, 301, 358, -1,
      326, 358, 329, -1,
      329, 358, 356, -1,
      329, 356, 331, -1,
      331, 356, 354, -1,
      331, 354, 333, -1,
      333, 354, 352, -1,
      333, 352, 335, -1,
      335, 352, 350, -1,
      335, 350, 337, -1,
      337, 350, 348, -1,
      337, 348, 339, -1,
      339, 348, 346, -1,
      339, 346, 345, -1,
      138, 141, 142, -1,
      138, 142, 136, -1,
      136, 142, 360, -1,
      136, 360, 361, -1,
      361, 360, 362, -1,
      362, 360, 363, -1,
      362, 363, 364, -1,
      364, 363, 365, -1,
      364, 365, 366, -1,
      367, 368, 369, -1,
      367, 369, 370, -1,
      369, 371, 370, -1,
      370, 371, 372, -1,
      370, 372, 366, -1,
      366, 372, 373, -1,
      366, 373, 364, -1,
      374, 375, 376, -1,
      374, 376, 368, -1,
      368, 376, 377, -1,
      368, 377, 369, -1,
      378, 135, 133, -1,
      378, 133, 375, -1,
      375, 133, 379, -1,
      375, 379, 376, -1,
      137, 136, 361, -1,
      137, 361, 380, -1,
      380, 361, 362, -1,
      380, 362, 381, -1,
      381, 362, 382, -1,
      382, 362, 364, -1,
      382, 364, 383, -1,
      364, 373, 383, -1,
      383, 373, 372, -1,
      383, 372, 384, -1,
      384, 372, 385, -1,
      372, 371, 385, -1,
      385, 371, 369, -1,
      385, 369, 386, -1,
      386, 369, 387, -1,
      369, 377, 387, -1,
      387, 377, 376, -1,
      387, 376, 388, -1,
      388, 376, 389, -1,
      376, 379, 389, -1,
      389, 379, 133, -1,
      389, 133, 132, -1,
      135, 378, 134, -1,
      134, 378, 390, -1,
      374, 391, 392, -1,
      390, 378, 392, -1,
      392, 378, 375, -1,
      392, 375, 374, -1,
      391, 374, 393, -1,
      393, 374, 368, -1,
      393, 368, 394, -1,
      394, 368, 367, -1,
      394, 367, 395, -1,
      395, 367, 370, -1,
      395, 370, 396, -1,
      363, 397, 365, -1,
      365, 397, 396, -1,
      365, 396, 366, -1,
      366, 396, 370, -1,
      142, 143, 360, -1,
      360, 143, 398, -1,
      360, 398, 363, -1,
      363, 398, 399, -1,
      363, 399, 397, -1,
      120, 125, 143, -1,
      143, 125, 137, -1,
      143, 137, 398, -1,
      137, 380, 398, -1,
      398, 380, 381, -1,
      398, 381, 399, -1,
      399, 381, 382, -1,
      132, 134, 389, -1,
      389, 134, 390, -1,
      389, 390, 388, -1,
      388, 390, 392, -1,
      388, 392, 387, -1,
      387, 392, 391, -1,
      387, 391, 386, -1,
      386, 391, 393, -1,
      386, 393, 385, -1,
      385, 393, 394, -1,
      385, 394, 384, -1,
      384, 394, 395, -1,
      384, 395, 383, -1,
      383, 395, 396, -1,
      383, 396, 382, -1,
      382, 396, 397, -1,
      382, 397, 399, -1,
    ]
  }
}
